<svg width="139" height="37" viewBox="0 0 139 37" fill="none" xmlns="http://www.w3.org/2000/svg">
<path d="M7.28311 17.0037C7.3282 17.0037 7.37228 16.9902 7.40979 16.9649C7.4473 16.9395 7.47657 16.9035 7.49389 16.8613C7.58786 16.4417 7.80878 16.0624 8.12581 15.7761C8.17853 15.7405 8.19609 15.6694 8.19609 15.5982C8.19385 15.569 8.1847 15.5409 8.1694 15.5161C8.15411 15.4913 8.13313 15.4707 8.10826 15.4559L3.15651 12.5203L6.31734 10.6523C6.37941 10.6161 6.43133 10.5644 6.4682 10.5021C6.50506 10.4398 6.52565 10.3691 6.52803 10.2965C6.52936 10.2232 6.51032 10.1509 6.47306 10.088C6.43581 10.0251 6.38185 9.97403 6.31734 9.94069L5.36912 9.38906C5.30742 9.35407 5.23789 9.33569 5.16718 9.33569C5.09647 9.33569 5.02694 9.35407 4.96524 9.38906L0.715686 11.8798C0.653611 11.9161 0.601687 11.9678 0.564814 12.03C0.527942 12.0923 0.507338 12.163 0.504947 12.2356V17.1816C0.503624 17.255 0.522681 17.3272 0.559943 17.3902C0.597205 17.4531 0.651172 17.5041 0.715686 17.5374L1.66391 18.0889C1.72739 18.1274 1.80071 18.146 1.8746 18.1423C1.9784 18.1452 2.07921 18.1069 2.15557 18.0356C2.23145 17.9532 2.27516 17.8457 2.27856 17.7331V14.0684L7.19532 16.9859C7.22278 16.9988 7.25287 17.0049 7.28311 17.0037ZM13.7101 23.2306C13.637 23.2334 13.5652 23.2516 13.4994 23.284L10.3386 25.1343V19.3699C10.3386 19.2453 10.2156 19.1207 10.0752 19.1742C9.67502 19.2957 9.24937 19.3018 8.84595 19.192C8.81564 19.1831 8.78371 19.1814 8.75264 19.187C8.72157 19.1926 8.69218 19.2053 8.66673 19.2242C8.64128 19.2431 8.62046 19.2677 8.60587 19.296C8.59128 19.3244 8.58331 19.3558 8.58258 19.3877V25.1164L5.42175 23.2662C5.35825 23.2277 5.28492 23.2091 5.21101 23.2128C5.10426 23.214 5.00223 23.2575 4.92674 23.334C4.85126 23.4105 4.80832 23.5138 4.80713 23.622V24.7428C4.8058 24.8162 4.82485 24.8885 4.86212 24.9514C4.89938 25.0143 4.95335 25.0653 5.01787 25.0987L9.26743 27.5716C9.33091 27.6101 9.40423 27.6287 9.47812 27.625C9.55153 27.6242 9.62372 27.6059 9.68886 27.5716L13.9384 25.0987C14.0005 25.0624 14.0524 25.0107 14.0893 24.9484C14.1261 24.8861 14.1467 24.8154 14.1491 24.7428V23.622C14.1142 23.4263 13.9208 23.2306 13.7101 23.2306ZM9.49708 18.2579C9.69 18.2579 9.8786 18.1999 10.039 18.0913C10.1994 17.9827 10.3244 17.8284 10.3983 17.6478C10.4721 17.4672 10.4914 17.2685 10.4538 17.0768C10.4161 16.8851 10.3232 16.709 10.1868 16.5708C10.0504 16.4326 9.8766 16.3385 9.68738 16.3003C9.49816 16.2622 9.30203 16.2818 9.12379 16.3566C8.94555 16.4314 8.79321 16.558 8.68603 16.7206C8.57884 16.8831 8.52163 17.0742 8.52163 17.2696C8.52161 17.3994 8.54683 17.5279 8.59584 17.6479C8.64485 17.7678 8.71669 17.8768 8.80728 17.9685C8.89786 18.0603 9.0054 18.1331 9.12375 18.1828C9.24211 18.2325 9.36897 18.2581 9.49708 18.2581V18.2579Z" fill="#44EE88"/>
<path d="M12.6715 10.185C12.511 10.2936 12.3225 10.3516 12.1295 10.3516C11.8708 10.3516 11.6227 10.2474 11.4398 10.0621C11.2569 9.87676 11.1541 9.62539 11.1541 9.36328C11.1541 9.16782 11.2113 8.97674 11.3185 8.81422C11.4257 8.6517 11.578 8.52503 11.7562 8.45023C11.9345 8.37543 12.1306 8.35586 12.3198 8.39399C12.5091 8.43212 12.6829 8.52625 12.8193 8.66446C12.9557 8.80267 13.0486 8.97877 13.0862 9.17048C13.1239 9.36219 13.1046 9.5609 13.0307 9.74148C12.9569 9.92207 12.8319 10.0764 12.6715 10.185Z" fill="#F2F2F2"/>
<path d="M14.2861 10.0847C14.4465 9.97614 14.6351 9.91818 14.828 9.91818C15.0867 9.91818 15.3348 10.0223 15.5177 10.2076C15.7007 10.393 15.8034 10.6444 15.8034 10.9065C15.8034 11.1019 15.7462 11.293 15.6391 11.4555C15.5319 11.618 15.3795 11.7447 15.2013 11.8195C15.023 11.8943 14.8269 11.9139 14.6377 11.8758C14.4485 11.8376 14.2747 11.7435 14.1383 11.6053C14.0018 11.4671 13.9089 11.291 13.8713 11.0993C13.8337 10.9076 13.853 10.7088 13.9268 10.5283C14.0006 10.3477 14.1257 10.1933 14.2861 10.0847Z" fill="#F2F2F2"/>
<path d="M18.0495 13.3475C17.8891 13.4561 17.7005 13.5141 17.5076 13.5141C17.2489 13.5141 17.0008 13.4099 16.8178 13.2246C16.6349 13.0393 16.5321 12.7879 16.5321 12.5258C16.5321 12.3303 16.5894 12.1392 16.6965 11.9767C16.8037 11.8142 16.9561 11.6875 17.1343 11.6127C17.3125 11.5379 17.5087 11.5184 17.6979 11.5565C17.8871 11.5946 18.0609 11.6887 18.1973 11.827C18.3338 11.9652 18.4267 12.1413 18.4643 12.333C18.5019 12.5247 18.4826 12.7234 18.4088 12.904C18.335 13.0846 18.2099 13.2389 18.0495 13.3475Z" fill="#F2F2F2"/>
<path d="M14.2861 13.2853C14.4465 13.1767 14.6351 13.1188 14.828 13.1188C15.0867 13.1188 15.3348 13.2229 15.5177 13.4082C15.7007 13.5936 15.8034 13.8449 15.8034 14.107C15.8034 14.3025 15.7462 14.4936 15.6391 14.6561C15.5319 14.8186 15.3795 14.9453 15.2013 15.0201C15.023 15.0949 14.8269 15.1145 14.6377 15.0763C14.4485 15.0382 14.2747 14.9441 14.1383 14.8059C14.0018 14.6676 13.9089 14.4915 13.8713 14.2998C13.8337 14.1081 13.853 13.9094 13.9268 13.7288C14.0006 13.5482 14.1257 13.3939 14.2861 13.2853Z" fill="#F2F2F2"/>
<path d="M12.6715 16.5291C12.511 16.6377 12.3225 16.6956 12.1295 16.6956V16.6958C12.0014 16.6958 11.8746 16.6702 11.7562 16.6206C11.6378 16.5709 11.5303 16.4981 11.4397 16.4063C11.3491 16.3145 11.2773 16.2055 11.2283 16.0856C11.1793 15.9657 11.1541 15.8372 11.1541 15.7074C11.1541 15.5119 11.2113 15.3208 11.3185 15.1583C11.4257 14.9958 11.578 14.8691 11.7562 14.7943C11.9345 14.7195 12.1306 14.6999 12.3198 14.7381C12.5091 14.7762 12.6829 14.8703 12.8193 15.0085C12.9557 15.1468 13.0486 15.3228 13.0862 15.5146C13.1239 15.7063 13.1046 15.905 13.0307 16.0856C12.9569 16.2661 12.8319 16.4205 12.6715 16.5291Z" fill="#F2F2F2"/>
<path d="M16.9657 14.8856C17.1261 14.777 17.3147 14.7191 17.5076 14.7191V14.7193C17.7663 14.7193 18.0143 14.8233 18.1973 15.0087C18.3802 15.194 18.483 15.4453 18.483 15.7074C18.483 15.9028 18.4258 16.0939 18.3186 16.2564C18.2115 16.4189 18.0591 16.5456 17.8809 16.6204C17.7026 16.6952 17.5065 16.7148 17.3173 16.6767C17.1281 16.6385 16.9543 16.5444 16.8178 16.4062C16.6814 16.268 16.5885 16.0919 16.5509 15.9002C16.5132 15.7085 16.5326 15.5097 16.6064 15.3292C16.6802 15.1486 16.8052 14.9942 16.9657 14.8856Z" fill="#F2F2F2"/>
<path d="M16.9657 17.9911C17.1261 17.8825 17.3147 17.8245 17.5076 17.8245V17.8247C17.7663 17.8247 18.0143 17.9288 18.1973 18.1141C18.3802 18.2994 18.483 18.5507 18.483 18.8128C18.483 19.0083 18.4258 19.1993 18.3186 19.3619C18.2115 19.5244 18.0591 19.651 17.8809 19.7258C17.7026 19.8007 17.5065 19.8202 17.3173 19.7821C17.1281 19.744 16.9543 19.6498 16.8178 19.5116C16.6814 19.3734 16.5885 19.1973 16.5509 19.0056C16.5132 18.8139 16.5326 18.6152 16.6064 18.4346C16.6802 18.254 16.8052 18.0997 16.9657 17.9911Z" fill="#F2F2F2"/>
<path d="M9.49693 18.2579C9.68986 18.2579 9.87845 18.1999 10.0389 18.0913C10.1993 17.9827 10.3243 17.8284 10.3981 17.6478C10.472 17.4672 10.4913 17.2685 10.4536 17.0768C10.416 16.8851 10.3231 16.709 10.1867 16.5708C10.0503 16.4326 9.87645 16.3385 9.68723 16.3003C9.49801 16.2622 9.30188 16.2818 9.12364 16.3566C8.9454 16.4314 8.79306 16.558 8.68588 16.7206C8.57869 16.8831 8.52148 17.0742 8.52148 17.2696C8.52146 17.3994 8.54668 17.5279 8.59569 17.6479C8.6447 17.7678 8.71655 17.8768 8.80713 17.9685C8.89771 18.0603 9.00525 18.1331 9.1236 18.1828C9.24196 18.2325 9.36882 18.2581 9.49693 18.2581V18.2579Z" fill="#F2F2F2"/>
<path d="M42.456 9.29485V12.5829H35.592V16.1349H40.728V19.3269H35.592V26.1429H31.488V9.29485H42.456ZM50.709 26.3349C49.397 26.3349 48.213 26.0549 47.157 25.4949C46.117 24.9349 45.293 24.1349 44.685 23.0949C44.093 22.0549 43.797 20.8389 43.797 19.4469C43.797 18.0709 44.101 16.8629 44.709 15.8229C45.317 14.7669 46.149 13.9589 47.205 13.3989C48.261 12.8389 49.445 12.5589 50.757 12.5589C52.069 12.5589 53.253 12.8389 54.309 13.3989C55.365 13.9589 56.197 14.7669 56.805 15.8229C57.413 16.8629 57.717 18.0709 57.717 19.4469C57.717 20.8229 57.405 22.0389 56.781 23.0949C56.173 24.1349 55.333 24.9349 54.261 25.4949C53.205 26.0549 52.021 26.3349 50.709 26.3349ZM50.709 22.7829C51.493 22.7829 52.157 22.4949 52.701 21.9189C53.261 21.3429 53.541 20.5189 53.541 19.4469C53.541 18.3749 53.269 17.5509 52.725 16.9749C52.197 16.3989 51.541 16.1109 50.757 16.1109C49.957 16.1109 49.293 16.3989 48.765 16.9749C48.237 17.5349 47.973 18.3589 47.973 19.4469C47.973 20.5189 48.229 21.3429 48.741 21.9189C49.269 22.4949 49.925 22.7829 50.709 22.7829ZM63.9983 14.9829C64.4783 14.2469 65.0783 13.6709 65.7983 13.2549C66.5183 12.8229 67.3183 12.6069 68.1983 12.6069V16.9509H67.0703C66.0463 16.9509 65.2783 17.1749 64.7663 17.6229C64.2543 18.0549 63.9983 18.8229 63.9983 19.9269V26.1429H59.8943V12.7509H63.9983V14.9829ZM82.7839 19.2309C82.7839 19.6149 82.7599 20.0149 82.7119 20.4309H73.4239C73.4879 21.2629 73.7519 21.9029 74.2159 22.3509C74.6959 22.7829 75.2799 22.9989 75.9679 22.9989C76.9919 22.9989 77.7039 22.5669 78.1039 21.7029H82.4719C82.2479 22.5829 81.8399 23.3749 81.2479 24.0789C80.6719 24.7829 79.9439 25.3349 79.0639 25.7349C78.1839 26.1349 77.1999 26.3349 76.1119 26.3349C74.7999 26.3349 73.6319 26.0549 72.6079 25.4949C71.5839 24.9349 70.7839 24.1349 70.2079 23.0949C69.6319 22.0549 69.3439 20.8389 69.3439 19.4469C69.3439 18.0549 69.6239 16.8389 70.1839 15.7989C70.7599 14.7589 71.5599 13.9589 72.5839 13.3989C73.6079 12.8389 74.7839 12.5589 76.1119 12.5589C77.4079 12.5589 78.5599 12.8309 79.5679 13.3749C80.5759 13.9189 81.3599 14.6949 81.9199 15.7029C82.4959 16.7109 82.7839 17.8869 82.7839 19.2309ZM78.5839 18.1509C78.5839 17.4469 78.3439 16.8869 77.8639 16.4709C77.3839 16.0549 76.7839 15.8469 76.0639 15.8469C75.3759 15.8469 74.7919 16.0469 74.3119 16.4469C73.8479 16.8469 73.5599 17.4149 73.4479 18.1509H78.5839Z" fill="#44EE88"/>
<path d="M84.6129 17.7429C84.6129 16.0949 84.9729 14.6229 85.6929 13.3269C86.4129 12.0149 87.3969 10.9989 88.6449 10.2789C89.8929 9.54285 91.2849 9.17485 92.8209 9.17485C94.6929 9.17485 96.2929 9.62285 97.6209 10.5189C98.9649 11.3989 99.9409 12.6469 100.549 14.2629H98.5809C98.1009 13.1269 97.3649 12.2389 96.3729 11.5989C95.3969 10.9589 94.2129 10.6389 92.8209 10.6389C91.5889 10.6389 90.4769 10.9269 89.4849 11.5029C88.5089 12.0789 87.7409 12.9109 87.1809 13.9989C86.6209 15.0709 86.3409 16.3189 86.3409 17.7429C86.3409 19.1669 86.6209 20.4149 87.1809 21.4869C87.7409 22.5589 88.5089 23.3829 89.4849 23.9589C90.4769 24.5349 91.5889 24.8229 92.8209 24.8229C94.2129 24.8229 95.3969 24.5109 96.3729 23.8869C97.3649 23.2469 98.1009 22.3669 98.5809 21.2469H100.549C99.9409 22.8469 98.9649 24.0869 97.6209 24.9669C96.2769 25.8469 94.6769 26.2869 92.8209 26.2869C91.2849 26.2869 89.8929 25.9269 88.6449 25.2069C87.3969 24.4709 86.4129 23.4549 85.6929 22.1589C84.9729 20.8629 84.6129 19.3909 84.6129 17.7429ZM103.129 19.5669C103.129 18.2229 103.393 17.0469 103.921 16.0389C104.465 15.0149 105.209 14.2309 106.153 13.6869C107.113 13.1269 108.193 12.8469 109.393 12.8469C110.641 12.8469 111.713 13.1349 112.609 13.7109C113.521 14.2869 114.177 15.0229 114.577 15.9189V13.0389H116.257V26.1429H114.577V23.2389C114.161 24.1349 113.497 24.8789 112.585 25.4709C111.689 26.0469 110.617 26.3349 109.369 26.3349C108.185 26.3349 107.113 26.0549 106.153 25.4949C105.209 24.9349 104.465 24.1429 103.921 23.1189C103.393 22.0949 103.129 20.9109 103.129 19.5669ZM114.577 19.5909C114.577 18.5349 114.361 17.6069 113.929 16.8069C113.497 16.0069 112.905 15.3909 112.153 14.9589C111.417 14.5269 110.601 14.3109 109.705 14.3109C108.777 14.3109 107.945 14.5189 107.209 14.9349C106.473 15.3509 105.889 15.9589 105.457 16.7589C105.041 17.5429 104.833 18.4789 104.833 19.5669C104.833 20.6389 105.041 21.5829 105.457 22.3989C105.889 23.1989 106.473 23.8149 107.209 24.2469C107.945 24.6629 108.777 24.8709 109.705 24.8709C110.601 24.8709 111.417 24.6549 112.153 24.2229C112.905 23.7909 113.497 23.1749 113.929 22.3749C114.361 21.5749 114.577 20.6469 114.577 19.5909ZM124.604 26.3349C123.1 26.3349 121.868 25.9909 120.908 25.3029C119.964 24.5989 119.436 23.6469 119.324 22.4469H121.052C121.132 23.1829 121.476 23.7829 122.084 24.2469C122.708 24.6949 123.54 24.9189 124.58 24.9189C125.492 24.9189 126.204 24.7029 126.716 24.2709C127.244 23.8389 127.508 23.3029 127.508 22.6629C127.508 22.2149 127.364 21.8469 127.076 21.5589C126.788 21.2709 126.42 21.0469 125.972 20.8869C125.54 20.7109 124.948 20.5269 124.196 20.3349C123.22 20.0789 122.428 19.8229 121.82 19.5669C121.212 19.3109 120.692 18.9349 120.26 18.4389C119.844 17.9269 119.636 17.2469 119.636 16.3989C119.636 15.7589 119.828 15.1669 120.212 14.6229C120.596 14.0789 121.14 13.6469 121.844 13.3269C122.548 13.0069 123.348 12.8469 124.244 12.8469C125.652 12.8469 126.788 13.2069 127.652 13.9269C128.516 14.6309 128.98 15.6069 129.044 16.8549H127.364C127.316 16.0869 127.012 15.4709 126.452 15.0069C125.908 14.5269 125.156 14.2869 124.196 14.2869C123.348 14.2869 122.66 14.4869 122.132 14.8869C121.604 15.2869 121.34 15.7829 121.34 16.3749C121.34 16.8869 121.492 17.3109 121.796 17.6469C122.116 17.9669 122.508 18.2229 122.972 18.4149C123.436 18.5909 124.06 18.7909 124.844 19.0149C125.788 19.2709 126.54 19.5189 127.1 19.7589C127.66 19.9989 128.14 20.3509 128.54 20.8149C128.94 21.2789 129.148 21.8949 129.164 22.6629C129.164 23.3669 128.972 23.9989 128.588 24.5589C128.204 25.1029 127.668 25.5349 126.98 25.8549C126.292 26.1749 125.5 26.3349 124.604 26.3349ZM134.51 14.4549V22.5909C134.51 23.3909 134.662 23.9429 134.966 24.2469C135.27 24.5509 135.806 24.7029 136.574 24.7029H138.11V26.1429H136.31C135.126 26.1429 134.246 25.8709 133.67 25.3269C133.094 24.7669 132.806 23.8549 132.806 22.5909V14.4549H130.982V13.0389H132.806V9.75085H134.51V13.0389H138.11V14.4549H134.51Z" fill="#F2F2F2"/>
</svg>
